<svg width="17" height="18" viewBox="0 0 17 18" fill="none" xmlns="http://www.w3.org/2000/svg">
<path d="M0 2.1875C0 0.98 0.98 0 2.1875 0H5.3125C5.56114 3.70503e-09 5.7996 0.0987721 5.97541 0.274587C6.15123 0.450403 6.25 0.68886 6.25 0.9375C6.25 1.18614 6.15123 1.4246 5.97541 1.60041C5.7996 1.77623 5.56114 1.875 5.3125 1.875H2.1875C2.10462 1.875 2.02513 1.90792 1.96653 1.96653C1.90792 2.02513 1.875 2.10462 1.875 2.1875V15.3125C1.875 15.485 2.015 15.625 2.1875 15.625H5.3125C5.56114 15.625 5.7996 15.7238 5.97541 15.8996C6.15123 16.0754 6.25 16.3139 6.25 16.5625C6.25 16.8111 6.15123 17.0496 5.97541 17.2254C5.7996 17.4012 5.56114 17.5 5.3125 17.5H2.1875C1.60734 17.5 1.05094 17.2695 0.640704 16.8593C0.230468 16.4491 0 15.8927 0 15.3125V2.1875ZM8.2 7.8125H15.3125C15.5611 7.8125 15.7996 7.91127 15.9754 8.08709C16.1512 8.2629 16.25 8.50136 16.25 8.75C16.25 8.99864 16.1512 9.2371 15.9754 9.41291C15.7996 9.58873 15.5611 9.6875 15.3125 9.6875H8.2L10.6625 12.15C10.7859 12.2646 10.8761 12.4103 10.9236 12.5719C10.9712 12.7335 10.9742 12.9049 10.9325 13.068C10.8908 13.2312 10.8058 13.38 10.6866 13.499C10.5674 13.6179 10.4183 13.7025 10.255 13.7437C10.092 13.7854 9.92085 13.7824 9.75942 13.7351C9.59799 13.6878 9.45226 13.598 9.3375 13.475L5.275 9.4125C5.09944 9.23672 5.00082 8.99844 5.00082 8.75C5.00082 8.50156 5.09944 8.26328 5.275 8.0875L9.3375 4.025C9.45209 3.90159 9.59784 3.81138 9.75941 3.76386C9.92097 3.71634 10.0924 3.71328 10.2555 3.755C10.4187 3.79672 10.5675 3.88167 10.6865 4.0009C10.8054 4.12013 10.89 4.26924 10.9312 4.4325C10.9729 4.59548 10.9699 4.76665 10.9226 4.92808C10.8753 5.08951 10.7855 5.23524 10.6625 5.35L8.2 7.8125Z" fill="#236480"/>
</svg>
