<svg width="16" height="22" viewBox="0 0 16 22" fill="none" xmlns="http://www.w3.org/2000/svg">
<path fill-rule="evenodd" clip-rule="evenodd" d="M12 1.49948V17.9595C11.9999 18.1773 11.9524 18.3925 11.8607 18.5901C11.7691 18.7878 11.6355 18.963 11.4692 19.1038C11.3029 19.2445 11.108 19.3474 10.898 19.4052C10.688 19.463 10.4679 19.4743 10.253 19.4385L1.671 18.0085C1.20401 17.9306 0.779792 17.6896 0.473815 17.3283C0.167837 16.967 -5.81779e-05 16.5089 1.51224e-08 16.0355V3.42348C-5.81779e-05 2.95004 0.167837 2.49193 0.473815 2.13065C0.779792 1.76938 1.20401 1.52836 1.671 1.45048L10.253 0.0204761C10.4679 -0.0154085 10.6881 -0.00402647 10.8982 0.0538302C11.1083 0.111687 11.3033 0.214629 11.4696 0.355492C11.6359 0.496356 11.7695 0.671759 11.8611 0.869495C11.9527 1.06723 12.0001 1.28155 12 1.49948ZM14 2.72948C14.5046 2.72932 14.9906 2.91988 15.3605 3.26297C15.7305 3.60606 15.9572 4.07632 15.995 4.57948L16 4.72948V14.7295C16.0002 15.2341 15.8096 15.72 15.4665 16.09C15.1234 16.46 14.6532 16.6866 14.15 16.7245L14 16.7295H13V2.72948H14ZM7.5 8.22948C7.10218 8.22948 6.72064 8.38751 6.43934 8.66882C6.15804 8.95012 6 9.33165 6 9.72948C6 10.1273 6.15804 10.5088 6.43934 10.7901C6.72064 11.0714 7.10218 11.2295 7.5 11.2295C7.89782 11.2295 8.27936 11.0714 8.56066 10.7901C8.84196 10.5088 9 10.1273 9 9.72948C9 9.33165 8.84196 8.95012 8.56066 8.66882C8.27936 8.38751 7.89782 8.22948 7.5 8.22948Z" fill="#2F85AA"/>
</svg>
